<svg height="15px" width="15px" xmlns="http://www.w3.org/2000/svg" viewBox="0 0 56.56 51.06"><defs><style>.cls-1{fill:#CF202D}</style></defs><g id="Layer_2" data-name="Layer 2"><g id="Layer_1-2" data-name="Layer 1"><path class="cls-1" d="M34.65 29.3v13.42H21.9V29.3a5.19 5.19 0 0 1 5.19-5.19h2.36a5.19 5.19 0 0 1 5.2 5.19Z"></path><path class="cls-1" d="M56 18.52 49.72 10 45.6 4.48A11.12 11.12 0 0 0 36.7 0H19.85A11.12 11.12 0 0 0 11 4.48L6.86 10 .71 18.27l-.16.25a4.11 4.11 0 0 0 3.57 6.15h2.71v18.69a7.72 7.72 0 0 0 7.7 7.7H42a7.71 7.71 0 0 0 7.7-7.7V24.67h2.71A4.12 4.12 0 0 0 56 18.52Zm-11.28 1.15v23.69a2.7 2.7 0 0 1-2.7 2.7H14.53a2.71 2.71 0 0 1-2.7-2.7V19.67H5.89l.94-1.27 6.25-8.4L15 7.46A6.12 6.12 0 0 1 19.85 5H36.7a6.09 6.09 0 0 1 4.88 2.46L43.46 10l6.26 8.42.94 1.26Z"></path></g></g></svg>