<svg width="12" height="14" viewBox="0 0 12 14" fill="none" xmlns="http://www.w3.org/2000/svg">
<path d="M2.65001 2.07H1.90001C1.63492 2.07 1.42001 2.2849 1.42001 2.55V13.52C1.42001 13.7851 1.63492 14 1.90001 14H2.65001C2.91511 14 3.13001 13.7851 3.13001 13.52V2.55C3.13001 2.2849 2.91511 2.07 2.65001 2.07Z" fill="#858585"/>
<path d="M2.28 3.18C3.15814 3.18 3.87 2.46813 3.87 1.59C3.87 0.711867 3.15814 0 2.28 0C1.40187 0 0.690002 0.711867 0.690002 1.59C0.690002 2.46813 1.40187 3.18 2.28 3.18Z" fill="#FF9900"/>
<path d="M10.77 9.4H3.13V3.18H10.77C11.18 3.18 11.44 3.62 11.24 3.98L10.1 6.02C10.01 6.18 10.01 6.38 10.1 6.55L11.24 8.59C11.44 8.95 11.18 9.39 10.77 9.39V9.4Z" fill="#FF9900"/>
</svg>
