<svg width="20" height="20" viewBox="0 0 20 20" fill="none" xmlns="http://www.w3.org/2000/svg">
<path d="M15.44 7.19V4.73C15.44 3.25 14.23 2.04 12.74 2.04H12.44V1.61C12.44 0.790005 11.78 0.130005 10.96 0.130005H4.72001C3.90001 0.130005 3.24001 0.790005 3.24001 1.61V2.04H2.93001C1.45001 2.04 0.240005 3.25 0.240005 4.73V17.18C0.240005 18.66 1.45001 19.87 2.93001 19.87H12.74C14.23 19.87 15.44 18.66 15.44 17.18V16.84C17.86 16.57 19.76 14.51 19.76 12.01C19.76 9.51 17.86 7.45 15.44 7.19ZM4.72001 1.63001H10.94L10.96 2.77H9.58001L4.74001 2.79V2.04H4.73001V1.63001H4.72001ZM13.93 17.18C13.93 17.84 13.39 18.37 12.73 18.37H2.93001C2.27001 18.37 1.74001 17.84 1.74001 17.18V4.73C1.74001 4.07 2.27001 3.54 2.93001 3.54H3.44001C3.44001 3.54 3.47001 3.57 3.48001 3.59C3.52001 3.65 3.57001 3.71 3.62001 3.77C3.66001 3.82 3.70001 3.86 3.75001 3.9C3.81001 3.95 3.87001 4.00001 3.94001 4.05C3.98001 4.07 4.01001 4.09 4.05001 4.11C4.12001 4.15 4.19001 4.18 4.27001 4.2C4.31001 4.21 4.34001 4.22 4.38001 4.23C4.49001 4.26 4.61001 4.28 4.73001 4.28H10.98C11.1 4.28 11.21 4.26 11.33 4.23C11.37 4.23 11.4 4.21 11.44 4.2C11.51 4.18 11.59 4.15 11.66 4.11C11.7 4.09 11.73 4.07 11.77 4.05C11.84 4.01 11.9 3.96 11.96 3.9C12.01 3.86 12.05 3.82 12.09 3.77C12.14 3.71 12.19 3.66 12.23 3.6C12.24 3.58 12.26 3.57 12.27 3.55H12.77C13.43 3.55 13.97 4.08 13.97 4.74V7.28C11.76 7.73 10.1 9.68001 10.1 12.02C10.1 14.36 11.76 16.32 13.97 16.77V17.19L13.93 17.18ZM15.43 15.31C15.26 15.35 15.09 15.36 14.91 15.36C14.57 15.36 14.24 15.31 13.93 15.21C12.56 14.79 11.56 13.52 11.56 12.01C11.56 10.5 12.56 9.24 13.93 8.82C14.24 8.72 14.57 8.67 14.91 8.67C15.09 8.67 15.26 8.68001 15.43 8.72001C17.03 8.96 18.25 10.35 18.25 12.01C18.25 13.67 17.03 15.07 15.43 15.31Z" fill="#929292"/>
<path d="M15.74 10.58L14.47 11.85L14.09 11.47C13.8 11.18 13.32 11.18 13.03 11.47C12.74 11.76 12.74 12.24 13.03 12.53L14.47 13.97L16.8 11.64C17.09 11.35 17.09 10.87 16.8 10.58C16.51 10.29 16.03 10.29 15.74 10.58Z" fill="#929292"/>
<path d="M8.73 6.53998H4.19C3.78 6.53998 3.44 6.87998 3.44 7.28998C3.44 7.69998 3.78 8.03998 4.19 8.03998H8.73C9.14 8.03998 9.48 7.69998 9.48 7.28998C9.48 6.87998 9.14 6.53998 8.73 6.53998Z" fill="#929292"/>
<path d="M7.35 10.36H4.19C3.78 10.36 3.44 10.7 3.44 11.11C3.44 11.52 3.78 11.86 4.19 11.86H7.35C7.76 11.86 8.1 11.52 8.1 11.11C8.1 10.7 7.76 10.36 7.35 10.36Z" fill="#929292"/>
<path d="M7.35 14.19H4.19C3.78 14.19 3.44 14.53 3.44 14.94C3.44 15.35 3.78 15.69 4.19 15.69H7.35C7.76 15.69 8.1 15.35 8.1 14.94C8.1 14.53 7.76 14.19 7.35 14.19Z" fill="#929292"/>
</svg>
