<svg width="20" height="20" viewBox="0 0 20 20" fill="none" xmlns="http://www.w3.org/2000/svg">
<path d="M15.3 7.94C13.06 7.94 11.24 9.77 11.24 12.01C11.24 14.25 13.06 16.08 15.3 16.08C17.54 16.08 19.37 14.25 19.37 12.01C19.37 9.77 17.55 7.94 15.3 7.94ZM17.19 11.64L14.86 13.97L13.42 12.53C13.13 12.24 13.13 11.76 13.42 11.47C13.71 11.18 14.19 11.18 14.48 11.47L14.86 11.85L16.13 10.58C16.42 10.29 16.9 10.29 17.19 10.58C17.48 10.87 17.48 11.35 17.19 11.64Z" fill="#CF202D"/>
<path d="M9.74 12.01C9.74 8.94001 12.23 6.44 15.3 6.44C15.48 6.44 15.66 6.45 15.83 6.47V4.73C15.83 3.24 14.62 2.03 13.13 2.03H12.83V1.61C12.83 0.790005 12.16 0.130005 11.35 0.130005H5.11C4.3 0.130005 3.63 0.790005 3.63 1.61V2.03H3.33C1.84 2.03 0.630005 3.24 0.630005 4.73V17.18C0.630005 18.66 1.84 19.87 3.33 19.87H13.14C14.5 19.87 15.62 18.86 15.8 17.56C15.64 17.57 15.47 17.58 15.31 17.58C12.24 17.58 9.75 15.08 9.75 12.01H9.74ZM5.87 16.16H3.44C2.89 16.16 2.44 15.71 2.44 15.16C2.44 14.61 2.89 14.16 3.44 14.16H5.87C6.42 14.16 6.87 14.61 6.87 15.16C6.87 15.71 6.42 16.16 5.87 16.16ZM7.01 12.36H3.44C2.89 12.36 2.44 11.91 2.44 11.36C2.44 10.81 2.89 10.36 3.44 10.36H7.01C7.56001 10.36 8.01 10.81 8.01 11.36C8.01 11.91 7.56001 12.36 7.01 12.36ZM7.01 8.56001H3.44C2.89 8.56001 2.44 8.11001 2.44 7.56001C2.44 7.01 2.89 6.56 3.44 6.56H7.01C7.56001 6.56 8.01 7.01 8.01 7.56001C8.01 8.11001 7.56001 8.56001 7.01 8.56001Z" fill="#CF202D"/>
</svg>
