<svg width="20" height="20" viewBox="0 0 20 20" fill="none" xmlns="http://www.w3.org/2000/svg">
<path d="M17.45 4.30001L11.94 0.710007C10.76 -0.0599927 9.23 -0.0599927 8.05 0.710007L2.55 4.30001C1.5 4.99001 0.869995 6.15001 0.869995 7.40001V16.81C0.869995 18.5 2.24 19.87 3.93 19.87H16.07C17.76 19.87 19.13 18.5 19.13 16.81V7.40001C19.13 6.14001 18.5 4.98001 17.45 4.30001ZM17.63 16.81C17.63 17.67 16.93 18.37 16.07 18.37H3.93C3.06999 18.37 2.36999 17.67 2.36999 16.81V7.40001C2.36999 6.65001 2.74 5.96001 3.37 5.55001L8.87 1.96001C9.21 1.74001 9.59999 1.63001 9.99 1.63001C10.38 1.63001 10.77 1.74001 11.11 1.96001L16.61 5.55001C17.24 5.96001 17.61 6.65001 17.61 7.40001V16.81H17.63Z" fill="#929292"/>
<path d="M10.2 8.26001C8.32999 8.26001 6.79999 9.78001 6.79999 11.66V15.31C6.79999 16.16 7.48999 16.86 8.34999 16.86H12.05C12.9 16.86 13.6 16.17 13.6 15.31V11.66C13.6 9.79001 12.08 8.26001 10.2 8.26001ZM12.1 15.31C12.1 15.31 12.08 15.36 12.05 15.36L8.29999 15.31V11.66C8.29999 10.61 9.14999 9.76001 10.2 9.76001C11.25 9.76001 12.1 10.61 12.1 11.66V15.31Z" fill="#929292"/>
</svg>
