<svg width="22" height="22" viewBox="0 0 22 22" fill="none" xmlns="http://www.w3.org/2000/svg">
<g clip-path="url(#clip0_27_11096)">
<path d="M11 22C17.0751 22 22 17.0751 22 11C22 4.92487 17.0751 0 11 0C4.92487 0 0 4.92487 0 11C0 17.0751 4.92487 22 11 22Z" fill="#CF202D"/>
<g filter="url(#filter0_d_27_11096)">
<path d="M11.7723 4.49863L13.2685 7.67174C13.394 7.93365 13.6353 8.11497 13.9153 8.16534L17.265 8.669C17.9696 8.77981 18.2496 9.67634 17.738 10.2002L15.315 12.6681C15.1123 12.8696 15.0157 13.1718 15.064 13.4639L15.6336 16.9493C15.7494 17.6847 15.0157 18.2387 14.3883 17.8962L11.3861 16.2542C11.1351 16.1132 10.8359 16.1132 10.5849 16.2542L7.58275 17.8962C6.95529 18.2387 6.22165 17.6847 6.33748 16.9493L6.90703 13.4639C6.95529 13.1718 6.85876 12.8797 6.65604 12.6681L4.26204 10.1901C3.75042 9.67634 4.03036 8.76974 4.73505 8.65893L8.08472 8.15526C8.36467 8.11497 8.606 7.93365 8.73149 7.66167L10.2374 4.49863C10.556 3.83379 11.4634 3.83379 11.7723 4.49863Z" fill="white"/>
<path d="M11.8978 9.00143C11.7336 8.5179 11.4537 8.30636 11 8.30636C10.5463 8.30636 10.276 8.52798 10.1119 9.00143L8.57704 13.3632C8.52877 13.5143 8.49981 13.6553 8.49981 13.7561C8.49981 14.1086 8.73149 14.3302 9.09831 14.3302C9.40722 14.3302 9.58097 14.1691 9.69681 13.7762L9.99606 12.8595H12.0232L12.3225 13.7863C12.4287 14.1691 12.6024 14.3302 12.9306 14.3302C13.2589 14.3302 13.5195 14.0885 13.5195 13.7561C13.5195 13.6352 13.5002 13.5244 13.4423 13.3632L11.8978 9.00143ZM10.247 11.9126L10.971 9.51517H11L11.7433 11.9126H10.247Z" fill="#CF202D"/>
</g>
</g>
<defs>
<filter id="filter0_d_27_11096" x="0" y="1" width="22" height="22" filterUnits="userSpaceOnUse" color-interpolation-filters="sRGB">
<feFlood flood-opacity="0" result="BackgroundImageFix"/>
<feColorMatrix in="SourceAlpha" type="matrix" values="0 0 0 0 0 0 0 0 0 0 0 0 0 0 0 0 0 0 127 0" result="hardAlpha"/>
<feOffset dy="1"/>
<feGaussianBlur stdDeviation="2"/>
<feComposite in2="hardAlpha" operator="out"/>
<feColorMatrix type="matrix" values="0 0 0 0 0 0 0 0 0 0 0 0 0 0 0 0 0 0 0.08 0"/>
<feBlend mode="normal" in2="BackgroundImageFix" result="effect1_dropShadow_27_11096"/>
<feBlend mode="normal" in="SourceGraphic" in2="effect1_dropShadow_27_11096" result="shape"/>
</filter>
<clipPath id="clip0_27_11096">
<rect width="22" height="22" fill="white"/>
</clipPath>
</defs>
</svg>
