<svg width="22" height="22" viewBox="0 0 22 22" fill="none" xmlns="http://www.w3.org/2000/svg">
<g clip-path="url(#clip0_26_7194)">
<path d="M16.76 2.60001H5.23999C3.21999 2.60001 1.57999 4.24001 1.57999 6.26001V12.64C1.57999 14.4 2.82999 15.87 4.48999 16.22V17.83C4.48999 18.46 4.86999 19.03 5.44999 19.27C5.63999 19.35 5.84999 19.39 6.04999 19.39C6.45999 19.39 6.84999 19.23 7.14999 18.93L9.78999 16.29H16.75C18.77 16.29 20.41 14.65 20.41 12.63V6.26001C20.41 4.24001 18.77 2.60001 16.75 2.60001H16.76ZM18.92 12.64C18.92 13.83 17.95 14.8 16.76 14.8H9.17999L6.09999 17.88L5.98999 17.84V14.81H5.23999C4.04999 14.81 3.07999 13.84 3.07999 12.65V6.26001C3.07999 5.07001 4.04999 4.10001 5.23999 4.10001H16.75C17.94 4.10001 18.91 5.07001 18.91 6.26001V12.64H18.92Z" fill="#CF202D"/>
<path d="M12.41 11.67H6.18997C5.77997 11.67 5.43997 12.01 5.43997 12.42C5.43997 12.83 5.77997 13.17 6.18997 13.17H12.4C12.81 13.17 13.15 12.83 13.15 12.42C13.15 12.01 12.81 11.67 12.4 11.67H12.41Z" fill="#CF202D"/>
<path d="M16.09 8.70001H6.18997C5.77997 8.70001 5.43997 9.04001 5.43997 9.45001C5.43997 9.86001 5.77997 10.2 6.18997 10.2H16.09C16.5 10.2 16.84 9.86001 16.84 9.45001C16.84 9.04001 16.5 8.70001 16.09 8.70001Z" fill="#CF202D"/>
<path d="M16.09 5.73001H6.18997C5.77997 5.73001 5.43997 6.07001 5.43997 6.48001C5.43997 6.89001 5.77997 7.23001 6.18997 7.23001H16.09C16.5 7.23001 16.84 6.89001 16.84 6.48001C16.84 6.07001 16.5 5.73001 16.09 5.73001Z" fill="#CF202D"/>
</g>
<defs>
<clipPath id="clip0_26_7194">
<rect width="22" height="22" fill="white"/>
</clipPath>
</defs>
</svg>
