<svg width="22" height="22" viewBox="0 0 22 22" fill="none" xmlns="http://www.w3.org/2000/svg">
<g clip-path="url(#clip0_26_5842)">
<path d="M20.51 3.24C20.35 2.86 19.91 2.68 19.53 2.84L17.4 3.74C17.17 3.84 16.97 3.96 16.78 4.11H3.30999C2.77999 4.11 2.26999 4.34 1.90999 4.73C1.55999 5.13 1.37999 5.65 1.43999 6.18L2.02999 11.72C2.18999 13.17 3.25999 14.31 4.62999 14.61C3.45 14.71 2.51999 15.69 2.51999 16.9C2.51999 18.17 3.55999 19.21 4.82999 19.21C6.09999 19.21 7.13999 18.17 7.13999 16.9C7.13999 15.85 6.42999 14.98 5.47999 14.69H13.03C12.07 14.97 11.37 15.85 11.37 16.9C11.37 18.17 12.41 19.21 13.68 19.21C14.95 19.21 15.99 18.17 15.99 16.9C15.99 15.75 15.14 14.8 14.03 14.63C15.43 14.35 16.53 13.19 16.68 11.72L17.29 6.03C17.33 5.62 17.6 5.27 17.97 5.11L20.1 4.21C20.48 4.05 20.66 3.61 20.5 3.23L20.51 3.24ZM5.64999 16.91C5.64999 17.36 5.28999 17.72 4.83999 17.72C4.38999 17.72 4.02999 17.36 4.02999 16.91C4.02999 16.46 4.38999 16.1 4.83999 16.1C5.28999 16.1 5.64999 16.46 5.64999 16.91ZM14.49 16.91C14.49 17.36 14.13 17.72 13.68 17.72C13.23 17.72 12.87 17.36 12.87 16.91C12.87 16.46 13.23 16.1 13.68 16.1C14.13 16.1 14.49 16.46 14.49 16.91Z" fill="#CF202D"/>
</g>
<defs>
<clipPath id="clip0_26_5842">
<rect width="22" height="22" fill="white"/>
</clipPath>
</defs>
</svg>
