<svg width="20" height="18" viewBox="0 0 20 18" fill="none" xmlns="http://www.w3.org/2000/svg">
<path d="M15.76 0.599976H4.24C2.22 0.599976 0.580002 2.23998 0.580002 4.25998V10.64C0.580002 12.4 1.83 13.87 3.49 14.22V15.83C3.49 16.46 3.87 17.03 4.45 17.27C4.64 17.35 4.85 17.39 5.05 17.39C5.46 17.39 5.85 17.23 6.15 16.93L8.79 14.29H15.75C17.77 14.29 19.41 12.65 19.41 10.63V4.25998C19.41 2.23998 17.77 0.599976 15.75 0.599976H15.76ZM17.92 10.64C17.92 11.83 16.95 12.8 15.76 12.8H8.18L5.1 15.88L4.99 15.84V12.81H4.24C3.05 12.81 2.08 11.84 2.08 10.65V4.25998C2.08 3.06998 3.05 2.09998 4.24 2.09998H15.75C16.94 2.09998 17.91 3.06998 17.91 4.25998V10.64H17.92Z" fill="#929292"/>
<path d="M11.41 9.66998H5.19C4.78 9.66998 4.44 10.01 4.44 10.42C4.44 10.83 4.78 11.17 5.19 11.17H11.4C11.81 11.17 12.15 10.83 12.15 10.42C12.15 10.01 11.81 9.66998 11.4 9.66998H11.41Z" fill="#929292"/>
<path d="M15.09 6.69995H5.19C4.78 6.69995 4.44 7.03995 4.44 7.44995C4.44 7.85995 4.78 8.19995 5.19 8.19995H15.09C15.5 8.19995 15.84 7.85995 15.84 7.44995C15.84 7.03995 15.5 6.69995 15.09 6.69995Z" fill="#929292"/>
<path d="M15.09 3.72998H5.19C4.78 3.72998 4.44 4.06998 4.44 4.47998C4.44 4.88998 4.78 5.22998 5.19 5.22998H15.09C15.5 5.22998 15.84 4.88998 15.84 4.47998C15.84 4.06998 15.5 3.72998 15.09 3.72998Z" fill="#929292"/>
</svg>
