<svg width="22" height="22" viewBox="0 0 22 22" fill="none" xmlns="http://www.w3.org/2000/svg">
<g clip-path="url(#clip0_27_11148)">
<path d="M20.5101 3.23994C20.3501 2.85994 19.9101 2.67994 19.5301 2.83994L17.4001 3.73994C16.5201 4.10994 15.9101 4.92994 15.8101 5.87994L15.2001 11.5699C15.1001 12.4999 14.3201 13.2099 13.3801 13.2099H5.3501C4.4101 13.2099 3.6301 12.5099 3.5301 11.5699L2.9401 6.02994C2.9201 5.87994 2.9901 5.77994 3.0301 5.73994C3.0701 5.68994 3.1601 5.61994 3.3101 5.61994H11.8101C12.2201 5.61994 12.5601 5.27994 12.5601 4.86994C12.5601 4.45994 12.2201 4.11994 11.8101 4.11994H3.3101C2.7801 4.11994 2.2701 4.34994 1.9101 4.73994C1.5601 5.13994 1.3801 5.65994 1.4401 6.18994L2.0301 11.7299C2.1901 13.1799 3.2601 14.3199 4.6301 14.6199C3.4501 14.7199 2.5201 15.6999 2.5201 16.9099C2.5201 18.1799 3.5601 19.2199 4.8301 19.2199C6.1001 19.2199 7.1401 18.1799 7.1401 16.9099C7.1401 15.8599 6.4301 14.9899 5.4801 14.6999H13.0301C12.0701 14.9799 11.3701 15.8599 11.3701 16.9099C11.3701 18.1799 12.4101 19.2199 13.6801 19.2199C14.9501 19.2199 15.9901 18.1799 15.9901 16.9099C15.9901 15.7599 15.1401 14.8099 14.0301 14.6399C15.4301 14.3599 16.5301 13.1999 16.6801 11.7299L17.2901 6.03994C17.3301 5.62994 17.6001 5.27994 17.9701 5.11994L20.1001 4.21994C20.4801 4.05994 20.6601 3.61994 20.5001 3.23994H20.5101ZM4.8401 17.7199C4.3901 17.7199 4.0301 17.3599 4.0301 16.9099C4.0301 16.4599 4.3901 16.0999 4.8401 16.0999C5.2901 16.0999 5.6501 16.4599 5.6501 16.9099C5.6501 17.3599 5.2901 17.7199 4.8401 17.7199ZM14.4901 16.9099C14.4901 17.3599 14.1301 17.7199 13.6801 17.7199C13.2301 17.7199 12.8701 17.3599 12.8701 16.9099C12.8701 16.4599 13.2301 16.0999 13.6801 16.0999C14.1301 16.0999 14.4901 16.4599 14.4901 16.9099Z" fill="#929292"/>
</g>
<defs>
<clipPath id="clip0_27_11148">
<rect width="22" height="22" fill="white"/>
</clipPath>
</defs>
</svg>
