<svg width="22" height="22" viewBox="0 0 22 22" fill="none" xmlns="http://www.w3.org/2000/svg">
<g clip-path="url(#clip0_26_5832)">
<path d="M19.78 16.92C19.55 16.22 19.08 15.64 18.44 15.28L14.68 13.16C15.53 12.25 16.05 11.04 16.05 9.71003V6.33003C16.05 3.54003 13.78 1.28003 11 1.28003C8.22 1.28003 5.95 3.54003 5.95 6.33003V9.71003C5.95 11.04 6.47 12.25 7.32 13.16L3.56 15.28C2.92 15.64 2.45 16.22 2.22 16.92C1.93 17.81 2.09 18.76 2.64 19.52C3.19 20.29 4.05 20.72 4.99 20.72H17.02C17.96 20.72 18.82 20.29 19.37 19.52C19.92 18.76 20.08 17.82 19.79 16.92H19.78ZM7.45 6.33003C7.45 4.37003 9.05 2.78003 11.01 2.78003C12.97 2.78003 14.56 4.37003 14.56 6.33003V9.71003C14.56 10.77 14.08 11.73 13.34 12.39C12.88 12.78 12.32 13.07 11.7 13.19C11.48 13.24 11.25 13.26 11.01 13.26C10.77 13.26 10.53 13.24 10.3 13.19C9.69 13.07 9.13 12.78 8.67 12.39C7.93 11.73 7.45 10.77 7.45 9.71003V6.33003ZM18.16 18.64C17.89 19.01 17.48 19.22 17.02 19.22H4.99C4.53 19.22 4.12 19.01 3.85 18.64C3.58 18.27 3.51 17.82 3.65 17.38C3.76 17.05 3.99 16.76 4.3 16.59L8.6 14.15H8.61C9.32 14.54 10.14 14.76 11.01 14.76C11.88 14.76 12.69 14.54 13.4 14.15H13.41L17.71 16.59C18.02 16.76 18.25 17.04 18.36 17.38C18.5 17.82 18.43 18.27 18.16 18.64Z" fill="#929292"/>
</g>
<defs>
<clipPath id="clip0_26_5832">
<rect width="22" height="22" fill="white"/>
</clipPath>
</defs>
</svg>
