<svg width="22" height="22" viewBox="0 0 22 22" fill="none" xmlns="http://www.w3.org/2000/svg">
<rect width="22" height="22" rx="5" fill="#CF202D"/>
<g clip-path="url(#clip0_160_2)">
<path d="M16 10H12V6C12 5.45 11.55 5 11 5C10.45 5 10 5.45 10 6V10H6C5.45 10 5 10.45 5 11C5 11.55 5.45 12 6 12H10V16C10 16.55 10.45 17 11 17C11.55 17 12 16.55 12 16V12H16C16.55 12 17 11.55 17 11C17 10.45 16.55 10 16 10Z" fill="white"/>
</g>
<defs>
<clipPath id="clip0_160_2">
<rect width="22" height="22" fill="white"/>
</clipPath>
</defs>
</svg>
