<svg width="18" height="18" viewBox="0 0 18 18" fill="none" xmlns="http://www.w3.org/2000/svg">
<g clip-path="url(#clip0_27_7991)">
<path d="M15.678 4.54501H2.313V16.362H15.678V4.54501Z" fill="#7699B7"/>
<path d="M17.136 14.733H0.854996V16.542H17.136V14.733Z" fill="#2B3F5E"/>
<path d="M17.847 16.542H0.143997V18H17.847V16.542Z" fill="#182538"/>
<path d="M14.31 11.376H3.68999V14.724H14.31V11.376Z" fill="#EFEFEF"/>
<path d="M14.535 9.89099H3.474V11.376H14.535V9.89099Z" fill="#602812"/>
<path d="M2.322 9.89099H0.989998V11.376H2.322V9.89099Z" fill="#602812"/>
<path d="M17.019 9.89099H15.687V11.376H17.019V9.89099Z" fill="#602812"/>
<path d="M5.472 0L3.69 6.759V7.038C3.69 8.073 2.799 8.901 1.737 8.793C0.818997 8.703 0.143997 7.857 0.143997 6.93V6.75L2.943 0.396C3.051 0.153 3.285 0 3.546 0H5.472Z" fill="#F22727"/>
<path d="M7.82099 0H5.47199L3.68999 6.759H3.699V7.038C3.699 8.019 4.49099 8.811 5.47199 8.811C6.453 8.811 7.245 8.019 7.245 7.038V6.759H7.236L7.82099 0Z" fill="#FF9494"/>
<path d="M10.179 0H7.83L7.236 6.759V7.038C7.236 8.019 8.028 8.811 9.009 8.811C9.99 8.811 10.782 8.019 10.782 7.038V6.759L10.179 0Z" fill="#F22727"/>
<path d="M12.528 0H10.179L10.773 6.759H10.764V7.038C10.764 8.019 11.556 8.811 12.537 8.811C13.518 8.811 14.31 8.019 14.31 7.038V6.759H14.319L12.528 0Z" fill="#FF9494"/>
<path d="M17.856 6.759H17.829V7.038C17.829 8.073 16.938 8.901 15.876 8.793C14.958 8.703 14.292 7.857 14.292 6.93V6.75H14.31L12.528 0H14.445C14.715 0 14.958 0.162 15.057 0.396L17.856 6.75V6.759Z" fill="#F22727"/>
</g>
<defs>
<clipPath id="clip0_27_7991">
<rect width="18" height="18" fill="white"/>
</clipPath>
</defs>
</svg>
