<svg height="15px" width="15px" xmlns="http://www.w3.org/2000/svg" viewBox="0 0 51.31 51.06"><defs><style>.cls-1{fill:#CF202D}</style></defs><g id="Layer_2" data-name="Layer 2"><g id="Layer_1-2" data-name="Layer 1"><path class="cls-1" d="M44.65 15.46h-6.1V12.9a12.9 12.9 0 1 0-25.8 0v2.56H6.66A6.67 6.67 0 0 0 0 22.12V39.4a11.67 11.67 0 0 0 11.66 11.66h28A11.67 11.67 0 0 0 51.31 39.4V22.12a6.67 6.67 0 0 0-6.66-6.66Zm-26.9-2.56a7.9 7.9 0 1 1 15.8 0v2.56h-15.8Zm28.56 26.5a6.66 6.66 0 0 1-6.66 6.66h-28A6.67 6.67 0 0 1 5 39.4V22.12a1.66 1.66 0 0 1 1.66-1.66h38a1.66 1.66 0 0 1 1.66 1.66Z"></path><path class="cls-1" d="M31.23 28.59a7.81 7.81 0 0 1-5.58 2.32 7.92 7.92 0 0 1-7.46-5.3H13a12.91 12.91 0 0 0 25.28 0h-5.17a7.76 7.76 0 0 1-1.88 2.98Z"></path></g></g></svg>