<svg width="10" height="10" viewBox="0 0 10 10" fill="none" xmlns="http://www.w3.org/2000/svg">
<g clip-path="url(#clip0_16_121)">
<path d="M6.53 1.66C6.24 1.37 5.77 1.37 5.47 1.66C5.18 1.95 5.18 2.43 5.47 2.72L7 4.25001H0.889999C0.479999 4.25001 0.139999 4.58 0.139999 5.00001C0.139999 5.42001 0.479999 5.75 0.889999 5.75H6.99L5.46 7.27C5.17 7.56 5.17 8.04 5.46 8.33C5.61 8.48 5.8 8.55 5.99 8.55C6.19 8.55 6.38 8.48 6.52 8.33L9.32 5.54L9.34 5.52L9.86 5.00001L6.53 1.66Z" fill="#929292"/>
</g>
<defs>
<clipPath id="clip0_16_121">
<rect width="10" height="10" fill="#929292"/>
</clipPath>
</defs>
</svg>
