<svg width="14" height="14" viewBox="0 0 14 14" fill="none" xmlns="http://www.w3.org/2000/svg">
<g clip-path="url(#clip0_1_5356)">
<path d="M7.00001 0C3.87334 0 1.34167 2.53167 1.34167 5.65833C1.34167 5.92667 1.36501 6.18333 1.40001 6.44V6.52167C1.48167 6.98833 1.61001 7.44333 1.78501 7.86333C3.11501 11.305 6.98834 14 6.98834 14C6.98834 14 10.8617 11.305 12.1917 7.86333C12.3667 7.44333 12.495 6.98833 12.565 6.52167V6.44C12.6117 6.18333 12.635 5.92667 12.635 5.65833C12.6583 2.53167 10.1267 0 7.00001 0Z" fill="#FF3131"/>
<path d="M6.99999 8.55168C8.59794 8.55168 9.89333 7.25629 9.89333 5.65835C9.89333 4.0604 8.59794 2.76501 6.99999 2.76501C5.40205 2.76501 4.10666 4.0604 4.10666 5.65835C4.10666 7.25629 5.40205 8.55168 6.99999 8.55168Z" fill="white"/>
</g>
<defs>
<clipPath id="clip0_1_5356">
<rect width="14" height="14" fill="white"/>
</clipPath>
</defs>
</svg>
