<svg width="100" height="100" viewBox="0 0 100 100" fill="none" xmlns="http://www.w3.org/2000/svg">
<g clip-path="url(#clip0_26_5850)">
<path d="M100 49.9966C100 71.0778 86.9565 89.1135 68.5003 96.4661C62.7823 98.7452 56.5421 100 50.0034 100C22.3903 100 0 77.6165 0 49.9966C0 46.7544 0.312013 43.58 0.902123 40.5074C5.33134 17.432 25.6325 0 50.0034 0C77.6165 0 100 22.3835 100 49.9966Z" fill="white"/>
<path opacity="0.3" d="M13.8032 41.674C13.2605 30.3263 15.3022 15.3022 26.2294 9.21794C31.8321 6.38269 38.9134 6.13851 44.4279 9.32646C56.6845 16.9979 55.7621 36.7361 50.2204 48.3009C49.7592 49.2234 48.3687 48.6129 48.7486 47.6497C53.1371 37.1973 53.9307 18.3477 43.0374 11.714C38.3708 9.12298 32.2594 9.30611 27.5317 11.6801C24.3641 13.3487 21.9426 16.2111 20.213 19.4737C16.7876 26.1412 15.7973 34.0975 15.8109 41.5519C15.8584 42.8542 13.9253 42.9899 13.8032 41.674Z" fill="#CF202D"/>
<path d="M72.8888 43.7751L68.5003 96.1729C62.7823 98.4519 56.5421 99.7068 50.0034 99.7068C22.3903 99.7068 0 77.3233 0 49.7034C0 46.4612 0.312013 43.2868 0.902123 40.2141C7.61717 39.5223 16.3264 39 27.3554 39C60.8017 39 72.8888 43.7751 72.8888 43.7751Z" fill="#CF202D"/>
<path d="M5.56874 42.9289C1.05812 27.2468 3.06586 5.56875 23.3806 4.3614C42.0878 3.99512 47.0596 28.6373 42.8203 43.0442C42.2302 44.8891 39.5103 44.1973 39.8765 42.298C42.5558 29.7158 38.1198 5.95538 21.0066 8.99411C5.90788 11.6666 5.77223 30.3466 7.61039 42.4134C7.86135 43.7225 5.95536 44.2108 5.56196 42.9221L5.56874 42.9289Z" fill="#9A131D"/>
<path d="M18.7207 49.9966C14.3593 49.9966 14.651 55.1448 14.8613 56.8812C15.0715 58.6177 16.1229 63.0197 19.1141 63.0197C22.1054 63.0197 22.6344 58.1835 22.6344 56.5082C22.6344 54.8328 22.241 49.9966 18.7139 49.9966H18.7207Z" fill="white"/>
<path d="M41.613 50.8919C45.9811 51.2718 45.235 56.4064 44.8688 58.1225C44.5025 59.8386 43.0645 64.1593 40.0665 63.8947C37.0684 63.6302 36.9667 58.7465 37.1159 57.0644C37.2651 55.3822 38.0859 50.5799 41.613 50.8852V50.8919Z" fill="white"/>
<path d="M17.9339 71.6069C22.3089 72.0681 32.2526 72.882 40.1004 71.7561C41.3484 71.5797 42.3862 72.6921 42.142 73.9266C41.3891 77.6436 38.7031 84.0806 29.0646 84.1077C19.4261 84.1348 16.6452 77.4401 15.9465 73.7435C15.7227 72.5497 16.7266 71.4848 17.9339 71.6136V71.6069Z" fill="white"/>
</g>
<defs>
<clipPath id="clip0_26_5850">
<rect width="100" height="100" fill="white"/>
</clipPath>
</defs>
</svg>
