<svg width="20" height="20" viewBox="0 0 20 20" fill="none" xmlns="http://www.w3.org/2000/svg">
<path d="M9.03857 1.51463C9.4883 0.828455 10.5117 0.828456 10.9614 1.51463L13.6549 5.62424C13.8097 5.86034 14.0492 6.03089 14.3262 6.10216L19.1468 7.34264C19.9517 7.54976 20.2679 8.5036 19.741 9.13481L16.585 12.9152C16.4037 13.1323 16.3122 13.4083 16.3287 13.6885L16.6145 18.5647C16.6622 19.3789 15.8342 19.9684 15.0588 19.6723L10.4148 17.8991C10.148 17.7973 9.85195 17.7973 9.58516 17.8991L4.94118 19.6723C4.16578 19.9684 3.33783 19.3789 3.38555 18.5647L3.67134 13.6885C3.68776 13.4083 3.59626 13.1323 3.41496 12.9152L0.259028 9.13481C-0.267915 8.5036 0.0483357 7.54976 0.853229 7.34264L5.67384 6.10216C5.95077 6.03089 6.19032 5.86034 6.34506 5.62424L9.03857 1.51463Z" fill="#FAA71B"/>
</svg>