<svg xmlns="http://www.w3.org/2000/svg" viewBox="0 0 61.32 61.32"><defs><style>.cls-1{fill:#1977f3;}.cls-2{fill:#fff;}</style></defs><title>Asset 20</title><g id="Layer_2" data-name="Layer 2"><g id="Layer_1-2" data-name="Layer 1"><path class="cls-1" d="M61.32,30.66A30.66,30.66,0,0,1,35.12,61a31,31,0,0,1-9.4-.08,30.66,30.66,0,1,1,35.6-30.26Z"/><path class="cls-2" d="M35.12,30.66h9.39l-1.78,8.89H35.12V61a31,31,0,0,1-9.4-.08V39.55H18.2V30.66h7.52V23a11,11,0,0,1,11-11,27.49,27.49,0,0,1,7.81.69v7.12H39a3.85,3.85,0,0,0-3.85,3.86Z"/></g></g></svg>