<svg width="36" height="36" viewBox="0 0 36 36" fill="none" xmlns="http://www.w3.org/2000/svg">
<g clip-path="url(#clip0_1_5462)">
<path d="M18 13.02L12.46 18.56C12.17 18.85 12.17 19.33 12.46 19.62C12.75 19.91 13.23 19.91 13.52 19.62L17.25 15.89V25.16C17.25 25.57 17.59 25.91 18 25.91C18.41 25.91 18.75 25.57 18.75 25.16V15.89L22.48 19.62C22.63 19.77 22.82 19.84 23.01 19.84C23.2 19.84 23.39 19.77 23.54 19.62C23.83 19.33 23.83 18.85 23.54 18.56L18 13.02Z" fill="white"/>
<path d="M24.27 10.09H11.73C11.32 10.09 10.98 10.43 10.98 10.84C10.98 11.25 11.32 11.59 11.73 11.59H24.27C24.68 11.59 25.02 11.25 25.02 10.84C25.02 10.43 24.68 10.09 24.27 10.09Z" fill="white"/>
</g>
<defs>
<clipPath id="clip0_1_5462">
<rect width="36" height="36" fill="white"/>
</clipPath>
</defs>
</svg>
