<svg width="12" height="12" viewBox="0 0 12 12" fill="none" xmlns="http://www.w3.org/2000/svg">
<g clip-path="url(#clip0_26_3094)">
<path d="M3.17001 6.89C3.50001 7.22 3.94001 7.39 4.38001 7.39C4.82001 7.39 5.25001 7.22 5.59001 6.89L10.96 1.51C11.25 1.22 11.25 0.739998 10.96 0.449998C10.67 0.159998 10.19 0.159998 9.90001 0.449998L4.52001 5.83C4.44001 5.91 4.31001 5.91 4.23001 5.83L2.10001 3.7C1.81001 3.41 1.33001 3.41 1.04001 3.7C0.75001 3.99 0.75001 4.47 1.04001 4.76L3.18001 6.9L3.17001 6.89Z" fill="#FFFFFF"/>
<path d="M9.9 4.83L4.52 10.21C4.44 10.29 4.31 10.29 4.23 10.21L2.09 8.07C1.8 7.78 1.32 7.78 1.03 8.07C0.74 8.36 0.74 8.84 1.03 9.13L3.17 11.27C3.5 11.6 3.94 11.77 4.38 11.77C4.82 11.77 5.25 11.6 5.59 11.27L10.97 5.89C11.26 5.6 11.26 5.12 10.97 4.83C10.68 4.54 10.2 4.54 9.91 4.83H9.9Z" fill="#FFFFFF"/>
</g>
<defs>
<clipPath id="clip0_26_3094">
<rect width="12" height="12" fill="white"/>
</clipPath>
</defs>
</svg>
