<svg width="12" height="12" viewBox="0 0 12 12" fill="none" xmlns="http://www.w3.org/2000/svg">
<g clip-path="url(#clip0_28_364)">
<path d="M6.00002 0C3.32002 0 1.15002 2.17 1.15002 4.85C1.15002 5.08 1.17002 5.3 1.20002 5.52V5.59C1.27002 5.99 1.38002 6.38 1.53002 6.74C2.67002 9.69 5.99002 12 5.99002 12C5.99002 12 9.31002 9.69 10.45 6.74C10.6 6.38 10.71 5.99 10.77 5.59V5.52C10.81 5.3 10.83 5.08 10.83 4.85C10.85 2.17 8.68002 0 6.00002 0Z" fill="white"/>
<path d="M6.00002 7.33012C7.36969 7.33012 8.48002 6.21978 8.48002 4.85012C8.48002 3.48045 7.36969 2.37012 6.00002 2.37012C4.63035 2.37012 3.52002 3.48045 3.52002 4.85012C3.52002 6.21978 4.63035 7.33012 6.00002 7.33012Z" fill="#CF202D"/>
</g>
<defs>
<clipPath id="clip0_28_364">
<rect width="12" height="12" fill="white"/>
</clipPath>
</defs>
</svg>
