<svg xmlns="http://www.w3.org/2000/svg" viewBox="0 0 339.34 339.34"><defs><style>.cls-1,.cls-3{fill:#fff;}.cls-1{opacity:0;}.cls-2{fill:#cacaca;}</style></defs><g id="Layer_2" data-name="Layer 2"><g id="Layer_1-2" data-name="Layer 1"><rect class="cls-1" width="339.34" height="339.34"/><path class="cls-2" d="M277.64,104.83h0a57.11,57.11,0,0,0-108-5.56,57.11,57.11,0,0,0-107.95,5.56h0c-11.35,32,4.46,100.28,108,171.15h0C273.18,205.11,289,136.78,277.64,104.83Z"/><rect class="cls-3" x="140.06" y="144.11" width="11.03" height="15.57" rx="5.51"/><rect class="cls-3" x="188.26" y="144.11" width="11.03" height="15.57" rx="5.51" transform="translate(387.54 303.79) rotate(180)"/><path class="cls-3" d="M152.84,177.43a3,3,0,0,1,2.43,1.23,18.77,18.77,0,0,0,28.82,0,3,3,0,0,1,4.84,3.54,24.73,24.73,0,0,1-38.51,0,3,3,0,0,1,.66-4.19A3,3,0,0,1,152.84,177.43Z"/><path class="cls-2" d="M9.72,163.68a3,3,0,0,1-.31-6L44,154a3,3,0,1,1,.63,6L10,163.66Z"/><path class="cls-2" d="M42.81,122.86a3.36,3.36,0,0,1-.82-.11l-29.67-8.4A3,3,0,0,1,14,108.58L43.63,117a3,3,0,0,1-.82,5.89Z"/><path class="cls-2" d="M29.94,211a3,3,0,0,1-1.64-5.51l25.52-16.61a3,3,0,1,1,3.27,5L31.57,210.53A3,3,0,0,1,29.94,211Z"/><path class="cls-2" d="M329.62,163.68l-.32,0L294.76,160a3,3,0,1,1,.63-6l34.54,3.65a3,3,0,0,1-.31,6Z"/><path class="cls-2" d="M296.53,122.86a3,3,0,0,1-.81-5.89l29.67-8.39a3,3,0,1,1,1.64,5.77l-29.68,8.4A3.3,3.3,0,0,1,296.53,122.86Z"/><path class="cls-2" d="M309.4,211a3,3,0,0,1-1.63-.48l-25.52-16.61a3,3,0,1,1,3.27-5L311,205.5A3,3,0,0,1,309.4,211Z"/></g></g></svg>