<svg width="66" height="66" viewBox="0 0 66 66" fill="none" xmlns="http://www.w3.org/2000/svg">
<circle cx="33" cy="33" r="33" fill="url(#paint0_linear_84_2616)"/>
<g clip-path="url(#clip0_84_2616)">
<path d="M33.0004 19C26.1544 19 20.6104 24.544 20.6104 31.39C20.6104 34.68 21.8984 37.648 23.9844 39.874V45.25C23.9844 46.286 24.8244 47 25.7344 47C26.0844 47 26.4344 46.888 26.7564 46.664L30.9284 43.598C31.6004 43.71 32.3004 43.78 33.0004 43.78C39.8464 43.78 45.3904 38.236 45.3904 31.39C45.3904 24.544 39.8464 19 33.0004 19ZM26.3644 33.7C25.0764 33.7 24.0404 32.664 24.0404 31.376C24.0404 30.088 25.0764 29.052 26.3644 29.052C27.6524 29.052 28.6884 30.088 28.6884 31.376C28.6884 32.664 27.6524 33.7 26.3644 33.7ZM33.0004 33.7C31.7124 33.7 30.6764 32.664 30.6764 31.376C30.6764 30.088 31.7124 29.052 33.0004 29.052C34.2884 29.052 35.3244 30.088 35.3244 31.376C35.3244 32.664 34.2884 33.7 33.0004 33.7ZM39.6364 33.7C38.3484 33.7 37.3124 32.664 37.3124 31.376C37.3124 30.088 38.3484 29.052 39.6364 29.052C40.9244 29.052 41.9604 30.088 41.9604 31.376C41.9604 32.664 40.9244 33.7 39.6364 33.7V33.7Z" fill="white"/>
</g>
<defs>
<linearGradient id="paint0_linear_84_2616" x1="74.5" y1="-8.5" x2="-7.99999" y2="74" gradientUnits="userSpaceOnUse">
<stop stop-color="#BC2EFF"/>
<stop offset="1" stop-color="#2E6EFF"/>
</linearGradient>
<clipPath id="clip0_84_2616">
<rect width="28" height="28" fill="white" transform="translate(19 19)"/>
</clipPath>
</defs>
</svg>
