<svg width="18" height="18" viewBox="0 0 18 18" fill="none" xmlns="http://www.w3.org/2000/svg">
<g clip-path="url(#clip0_28_1111)">
<path d="M17.39 16.3201L13.62 12.5501C14.67 11.2601 15.3 9.62014 15.3 7.84014C15.3 3.73014 11.96 0.390137 7.85001 0.390137C3.74001 0.390137 0.390015 3.73014 0.390015 7.85014C0.390015 11.9701 3.73001 15.3001 7.85001 15.3001C9.63001 15.3001 11.27 14.6701 12.56 13.6201L16.33 17.3901C16.48 17.5401 16.67 17.6101 16.86 17.6101C17.05 17.6101 17.25 17.5401 17.39 17.3901C17.69 17.1001 17.69 16.6301 17.39 16.3301V16.3201ZM12.55 11.4801C12.25 11.8801 11.89 12.2401 11.49 12.5401C10.48 13.3201 9.22001 13.7901 7.85001 13.7901C4.56001 13.7901 1.89001 11.1201 1.89001 7.84014C1.89001 4.56014 4.56001 1.89014 7.85001 1.89014C11.14 1.89014 13.8 4.55014 13.8 7.84014C13.8 9.21014 13.33 10.4701 12.55 11.4801Z" fill="#1E1E1E"/>
</g>
<defs>
<clipPath id="clip0_28_1111">
<rect width="18" height="18" fill="white"/>
</clipPath>
</defs>
</svg>
