<svg width="10" height="10" viewBox="0 0 10 10" fill="none" xmlns="http://www.w3.org/2000/svg">
<path d="M3.73 0.580221C3.3 0.400221 2.82 0.500221 2.49 0.830221L0.440004 2.88022C0.150004 3.17022 0.150004 3.65022 0.440004 3.94022C0.730004 4.23022 1.21 4.23022 1.5 3.94022L2.93 2.51022V8.75022C2.93 9.16022 3.27 9.50022 3.68 9.50022C4.09 9.50022 4.43 9.16022 4.43 8.75022V1.63022C4.43 1.17022 4.16 0.760221 3.73 0.580221Z" fill="#4C4C4C"/>
<path d="M9.56001 6.06023C9.27001 5.77023 8.79001 5.77023 8.50001 6.06023L7.07001 7.48023V1.24023C7.07001 0.830234 6.73001 0.490234 6.32001 0.490234C5.91001 0.490234 5.57001 0.830234 5.57001 1.24023V8.37023C5.57001 8.83023 5.85001 9.24023 6.27001 9.42023C6.41001 9.48024 6.56001 9.51023 6.70001 9.51023C6.99001 9.51023 7.28001 9.39023 7.50001 9.18023L9.55001 7.13023C9.84001 6.84023 9.84001 6.36023 9.55001 6.07023L9.56001 6.06023Z" fill="#4C4C4C"/>
</svg>