<svg width="18" height="18" viewBox="0 0 18 18" fill="none" xmlns="http://www.w3.org/2000/svg">
<g clip-path="url(#clip0_27_9207)">
<path d="M12.6199 2.79999C13.5199 2.79999 14.3699 3.14999 15.0099 3.78999C16.3299 5.10999 16.3299 7.25999 15.0099 8.57999L14.8499 8.73999L8.99988 14.58L3.14988 8.73999L2.98988 8.57999C1.66988 7.25999 1.66988 5.10999 2.98988 3.78999C3.62988 3.14999 4.47988 2.79999 5.37988 2.79999C6.27988 2.79999 7.13988 3.14999 7.77988 3.78999L7.93988 3.94999L8.99988 5.00999L10.0599 3.94999L10.2199 3.78999C10.8599 3.14999 11.7099 2.79999 12.6199 2.79999ZM12.6199 1.29999C11.3599 1.29999 10.1199 1.77999 9.15988 2.72999L8.99988 2.88999L8.83988 2.72999C7.88988 1.77999 6.63988 1.29999 5.37988 1.29999C4.11988 1.29999 2.87988 1.77999 1.92988 2.72999C0.0298828 4.63999 0.0298828 7.72999 1.92988 9.63999L2.08988 9.79999L8.99988 16.7L15.9099 9.79999L16.0699 9.63999C17.9799 7.72999 17.9799 4.63999 16.0699 2.72999C15.1199 1.77999 13.8699 1.29999 12.6199 1.29999Z" fill="#CF202D"/>
</g>
<defs>
<clipPath id="clip0_27_9207">
<rect width="18" height="18" fill="white"/>
</clipPath>
</defs>
</svg>
