<svg width="30" height="31" viewBox="0 0 30 31" fill="none" xmlns="http://www.w3.org/2000/svg">
<rect width="30" height="30" rx="10" fill="url(#paint0_linear_134_34)"/>
<g filter="url(#filter0_di_134_34)">
<path fill-rule="evenodd" clip-rule="evenodd" d="M12.0854 7C12.2913 6.4174 12.8469 6 13.5 6H16.5C17.1531 6 17.7087 6.4174 17.9146 7H22.5C23.3284 7 24 7.67157 24 8.5C24 9.19786 23.5234 9.78441 22.878 9.95197L22.1758 21.1871C22.077 22.7682 20.7658 24 19.1816 24H10.8184C9.23416 24 7.92301 22.7682 7.8242 21.1871L7.122 9.95197C6.47656 9.78441 6 9.19786 6 8.5C6 7.67157 6.67157 7 7.5 7H12.0854Z" fill="url(#paint1_linear_134_34)"/>
</g>
<g filter="url(#filter1_d_134_34)">
<path d="M10.0497 12.7952C10.0228 12.3643 10.365 12 10.7968 12V12C11.1921 12 11.5192 12.3073 11.5439 12.7018L11.9503 19.2048C11.9772 19.6357 11.635 20 11.2032 20V20C10.8079 20 10.4808 19.6927 10.4561 19.2982L10.0497 12.7952Z" fill="url(#paint2_linear_134_34)"/>
</g>
<g filter="url(#filter2_d_134_34)">
<path d="M19.9503 12.7952C19.9772 12.3643 19.635 12 19.2032 12V12C18.8079 12 18.4808 12.3073 18.4561 12.7018L18.0497 19.2048C18.0228 19.6357 18.365 20 18.7968 20V20C19.1921 20 19.5192 19.6927 19.5439 19.2982L19.9503 12.7952Z" fill="url(#paint3_linear_134_34)"/>
</g>
<g filter="url(#filter3_d_134_34)">
<path d="M14 13C14 12.4477 14.4477 12 15 12C15.5523 12 16 12.4477 16 13V19C16 19.5523 15.5523 20 15 20C14.4477 20 14 19.5523 14 19V13Z" fill="url(#paint4_linear_134_34)"/>
</g>
<defs>
<filter id="filter0_di_134_34" x="1" y="3" width="28" height="28" filterUnits="userSpaceOnUse" color-interpolation-filters="sRGB">
<feFlood flood-opacity="0" result="BackgroundImageFix"/>
<feColorMatrix in="SourceAlpha" type="matrix" values="0 0 0 0 0 0 0 0 0 0 0 0 0 0 0 0 0 0 127 0" result="hardAlpha"/>
<feOffset dy="2"/>
<feGaussianBlur stdDeviation="2.5"/>
<feComposite in2="hardAlpha" operator="out"/>
<feColorMatrix type="matrix" values="0 0 0 0 0.5375 0 0 0 0 0.0335938 0 0 0 0 0.0335938 0 0 0 0.12 0"/>
<feBlend mode="normal" in2="BackgroundImageFix" result="effect1_dropShadow_134_34"/>
<feBlend mode="normal" in="SourceGraphic" in2="effect1_dropShadow_134_34" result="shape"/>
<feColorMatrix in="SourceAlpha" type="matrix" values="0 0 0 0 0 0 0 0 0 0 0 0 0 0 0 0 0 0 127 0" result="hardAlpha"/>
<feOffset dy="2"/>
<feGaussianBlur stdDeviation="1"/>
<feComposite in2="hardAlpha" operator="arithmetic" k2="-1" k3="1"/>
<feColorMatrix type="matrix" values="0 0 0 0 1 0 0 0 0 1 0 0 0 0 1 0 0 0 0.29 0"/>
<feBlend mode="normal" in2="shape" result="effect2_innerShadow_134_34"/>
</filter>
<filter id="filter1_d_134_34" x="2.04785" y="6" width="17.9043" height="24" filterUnits="userSpaceOnUse" color-interpolation-filters="sRGB">
<feFlood flood-opacity="0" result="BackgroundImageFix"/>
<feColorMatrix in="SourceAlpha" type="matrix" values="0 0 0 0 0 0 0 0 0 0 0 0 0 0 0 0 0 0 127 0" result="hardAlpha"/>
<feOffset dy="2"/>
<feGaussianBlur stdDeviation="4"/>
<feComposite in2="hardAlpha" operator="out"/>
<feColorMatrix type="matrix" values="0 0 0 0 0.366667 0 0 0 0 0.0504167 0 0 0 0 0.0743193 0 0 0 0.86 0"/>
<feBlend mode="normal" in2="BackgroundImageFix" result="effect1_dropShadow_134_34"/>
<feBlend mode="normal" in="SourceGraphic" in2="effect1_dropShadow_134_34" result="shape"/>
</filter>
<filter id="filter2_d_134_34" x="10.0479" y="6" width="17.9043" height="24" filterUnits="userSpaceOnUse" color-interpolation-filters="sRGB">
<feFlood flood-opacity="0" result="BackgroundImageFix"/>
<feColorMatrix in="SourceAlpha" type="matrix" values="0 0 0 0 0 0 0 0 0 0 0 0 0 0 0 0 0 0 127 0" result="hardAlpha"/>
<feOffset dy="2"/>
<feGaussianBlur stdDeviation="4"/>
<feComposite in2="hardAlpha" operator="out"/>
<feColorMatrix type="matrix" values="0 0 0 0 0.366667 0 0 0 0 0.0504167 0 0 0 0 0.0743193 0 0 0 0.86 0"/>
<feBlend mode="normal" in2="BackgroundImageFix" result="effect1_dropShadow_134_34"/>
<feBlend mode="normal" in="SourceGraphic" in2="effect1_dropShadow_134_34" result="shape"/>
</filter>
<filter id="filter3_d_134_34" x="6" y="6" width="18" height="24" filterUnits="userSpaceOnUse" color-interpolation-filters="sRGB">
<feFlood flood-opacity="0" result="BackgroundImageFix"/>
<feColorMatrix in="SourceAlpha" type="matrix" values="0 0 0 0 0 0 0 0 0 0 0 0 0 0 0 0 0 0 127 0" result="hardAlpha"/>
<feOffset dy="2"/>
<feGaussianBlur stdDeviation="4"/>
<feComposite in2="hardAlpha" operator="out"/>
<feColorMatrix type="matrix" values="0 0 0 0 0.366667 0 0 0 0 0.0504167 0 0 0 0 0.0743193 0 0 0 0.86 0"/>
<feBlend mode="normal" in2="BackgroundImageFix" result="effect1_dropShadow_134_34"/>
<feBlend mode="normal" in="SourceGraphic" in2="effect1_dropShadow_134_34" result="shape"/>
</filter>
<linearGradient id="paint0_linear_134_34" x1="15" y1="0" x2="15" y2="30" gradientUnits="userSpaceOnUse">
<stop stop-color="#FFB6BB"/>
<stop offset="1" stop-color="#FFE4E6"/>
</linearGradient>
<linearGradient id="paint1_linear_134_34" x1="15" y1="6" x2="15" y2="24" gradientUnits="userSpaceOnUse">
<stop stop-color="#D11523"/>
<stop offset="1" stop-color="#F2535F"/>
</linearGradient>
<linearGradient id="paint2_linear_134_34" x1="11" y1="12" x2="11" y2="20" gradientUnits="userSpaceOnUse">
<stop stop-color="#FFEAEA"/>
<stop offset="0.651042" stop-color="#FEC2C2"/>
<stop offset="1" stop-color="#FFECEC"/>
</linearGradient>
<linearGradient id="paint3_linear_134_34" x1="19" y1="12" x2="19" y2="20" gradientUnits="userSpaceOnUse">
<stop stop-color="#FFEAEA"/>
<stop offset="0.651042" stop-color="#FEC2C2"/>
<stop offset="1" stop-color="#FFECEC"/>
</linearGradient>
<linearGradient id="paint4_linear_134_34" x1="15" y1="12" x2="15" y2="20" gradientUnits="userSpaceOnUse">
<stop stop-color="#FFEAEA"/>
<stop offset="0.651042" stop-color="#FEC2C2"/>
<stop offset="1" stop-color="#FFECEC"/>
</linearGradient>
</defs>
</svg>
