<svg width="18" height="18" viewBox="0 0 18 18" fill="none" xmlns="http://www.w3.org/2000/svg">
<g clip-path="url(#clip0_24_1830)">
<path d="M8.9998 0.330078C4.7498 0.330078 1.2998 3.78008 1.2998 8.03008C1.2998 10.1901 2.1898 12.1301 3.6198 13.5301V16.4201C3.6198 17.1701 4.2298 17.6701 4.8698 17.6701C5.1798 17.6701 5.4898 17.5601 5.7398 17.3001L7.4698 15.5701C7.9598 15.6701 8.4798 15.7201 8.9998 15.7201C13.2498 15.7201 16.6998 12.2701 16.6998 8.02008C16.6998 3.77008 13.2498 0.330078 8.9998 0.330078ZM8.9998 14.2301C8.5898 14.2301 8.16981 14.1901 7.7698 14.1101L6.9798 13.9501L6.4098 14.5201L5.1198 15.8101V12.9001L4.6698 12.4601C3.4698 11.2801 2.7998 9.71008 2.7998 8.03008C2.7998 4.61008 5.5798 1.83008 8.9998 1.83008C12.4198 1.83008 15.1998 4.61008 15.1998 8.03008C15.1998 11.4501 12.4198 14.2301 8.9998 14.2301Z" fill="#1E1E1E"/>
<path d="M7.93 4.45996L5.75 11.59H7.42L7.93 9.75996H9.97L10.52 11.59H12.26L10.05 4.45996H7.93ZM8.16 8.55996L8.58 7.04996C8.7 6.63996 8.8 6.09996 8.91 5.66996H8.93C9.04 6.08996 9.16 6.61996 9.29 7.04996L9.73 8.55996H8.15H8.16Z" fill="#1E1E1E"/>
</g>
<defs>
<clipPath id="clip0_24_1830">
<rect width="18" height="18" fill="white"/>
</clipPath>
</defs>
</svg>
