<svg width="18" height="18" viewBox="0 0 18 18" fill="none" xmlns="http://www.w3.org/2000/svg">
<g clip-path="url(#clip0_24_1835)">
<path d="M14.0104 1.41991H3.99039C2.42039 1.41991 1.15039 2.68991 1.15039 4.25991V10.0199C1.15039 11.5899 2.42039 12.8599 3.99039 12.8599H4.95039L4.17039 16.0799C4.07039 16.4799 4.32039 16.8899 4.72039 16.9899C4.78039 16.9999 4.84039 17.0099 4.90039 17.0099C5.24039 17.0099 5.54039 16.7799 5.63039 16.4399L6.50039 12.8699H11.5504L12.4204 16.4399C12.5004 16.7799 12.8104 17.0099 13.1504 17.0099C13.2104 17.0099 13.2704 17.0099 13.3304 16.9899C13.7304 16.8899 13.9804 16.4899 13.8804 16.0799L13.1004 12.8599H14.0404C15.6104 12.8599 16.8804 11.5899 16.8804 10.0199V4.24991C16.8804 2.67991 15.6104 1.40991 14.0404 1.40991L14.0104 1.41991ZM15.3504 10.0199C15.3504 10.7599 14.7504 11.3599 14.0104 11.3599H12.7104L12.4804 10.4299C12.3804 10.0299 11.9804 9.77991 11.5704 9.87991C11.1704 9.97991 10.9204 10.3799 11.0204 10.7899L11.1604 11.3699H6.85039L6.99039 10.7899C7.09039 10.3899 6.84039 9.97991 6.44039 9.87991C6.04039 9.77991 5.63039 10.0299 5.53039 10.4299L5.30039 11.3599H3.98039C3.24039 11.3599 2.64039 10.7599 2.64039 10.0199V4.24991C2.64039 3.50991 3.24039 2.90991 3.98039 2.90991H14.0104C14.7504 2.90991 15.3504 3.50991 15.3504 4.24991V10.0099V10.0199Z" fill="#1E1E1E"/>
</g>
<defs>
<clipPath id="clip0_24_1835">
<rect width="18" height="18" fill="white"/>
</clipPath>
</defs>
</svg>
