<svg width="18" height="18" viewBox="0 0 18 18" fill="none" xmlns="http://www.w3.org/2000/svg">
<g clip-path="url(#clip0_28_5067)">
<path d="M9.00004 4.16016C7.23004 4.16016 5.79004 5.60016 5.79004 7.37016C5.79004 9.14016 7.23004 10.5802 9.00004 10.5802C10.77 10.5802 12.21 9.14016 12.21 7.37016C12.21 5.60016 10.77 4.16016 9.00004 4.16016ZM9.00004 9.07016C8.06004 9.07016 7.29004 8.30016 7.29004 7.36016C7.29004 6.42016 8.06004 5.65016 9.00004 5.65016C9.94004 5.65016 10.71 6.42016 10.71 7.36016C10.71 8.30016 9.94004 9.07016 9.00004 9.07016Z" fill="#1E1E1E"/>
<path d="M15.54 7.36007C15.54 3.75007 12.61 0.820068 8.99996 0.820068C5.38996 0.820068 2.45996 3.76007 2.45996 7.36007C2.45996 8.37007 2.69996 9.36007 3.14996 10.2701L3.11996 10.3101L3.43996 10.8101C3.49996 10.9101 3.55996 11.0101 3.60996 11.0801L7.00996 16.3601C7.44996 17.0401 8.18996 17.4401 8.98996 17.4401C9.78996 17.4401 10.53 17.0401 10.97 16.3601L14.35 11.1101C14.42 11.0201 14.48 10.9201 14.53 10.8401L14.92 10.2301L14.88 10.1901C15.3 9.31007 15.52 8.35007 15.52 7.38007L15.54 7.36007ZM13.33 9.92007L13.27 10.0101C13.23 10.0801 13.18 10.1601 13.12 10.2501L9.71996 15.5301C9.39996 16.0301 8.59996 16.0301 8.27996 15.5301L4.85996 10.2301C4.80996 10.1601 4.76996 10.0901 4.70996 10.0001V9.98007L4.65996 9.93007C4.19996 9.15007 3.94996 8.26007 3.94996 7.37007C3.94996 4.59007 6.20996 2.33007 8.98996 2.33007C11.77 2.33007 14.03 4.59007 14.03 7.37007C14.03 8.27007 13.79 9.15007 13.32 9.93007L13.33 9.92007Z" fill="#1E1E1E"/>
</g>
<defs>
<clipPath id="clip0_28_5067">
<rect width="18" height="18" fill="white"/>
</clipPath>
</defs>
</svg>
