<svg width="30" height="33" viewBox="0 0 30 33" fill="none" xmlns="http://www.w3.org/2000/svg">
<rect width="30" height="30" rx="10" fill="url(#paint0_linear_134_17)"/>
<g filter="url(#filter0_di_134_17)">
<path d="M13.4624 4.40939C14.414 3.86354 15.586 3.86354 16.5376 4.40939L23.4607 8.38068C24.4132 8.92706 25 9.93731 25 11.0307V18.9693C25 20.0627 24.4132 21.0729 23.4607 21.6193L16.5376 25.5906C15.586 26.1365 14.414 26.1365 13.4624 25.5906L6.53932 21.6193C5.58683 21.0729 5 20.0627 5 18.9693V11.0307C5 9.93731 5.58683 8.92706 6.53932 8.38068L13.4624 4.40939Z" fill="url(#paint1_linear_134_17)"/>
</g>
<g filter="url(#filter1_d_134_17)">
<path d="M22 11.0526L14.2353 7L11 8.73684L18.1176 13.0789V18L20.0588 16.2632H22V11.0526Z" fill="url(#paint2_linear_134_17)"/>
</g>
<defs>
<filter id="filter0_di_134_17" x="0" y="1" width="30" height="32" filterUnits="userSpaceOnUse" color-interpolation-filters="sRGB">
<feFlood flood-opacity="0" result="BackgroundImageFix"/>
<feColorMatrix in="SourceAlpha" type="matrix" values="0 0 0 0 0 0 0 0 0 0 0 0 0 0 0 0 0 0 127 0" result="hardAlpha"/>
<feOffset dy="2"/>
<feGaussianBlur stdDeviation="2.5"/>
<feComposite in2="hardAlpha" operator="out"/>
<feColorMatrix type="matrix" values="0 0 0 0 0.5375 0 0 0 0 0.0335938 0 0 0 0 0.0335938 0 0 0 0.12 0"/>
<feBlend mode="normal" in2="BackgroundImageFix" result="effect1_dropShadow_134_17"/>
<feBlend mode="normal" in="SourceGraphic" in2="effect1_dropShadow_134_17" result="shape"/>
<feColorMatrix in="SourceAlpha" type="matrix" values="0 0 0 0 0 0 0 0 0 0 0 0 0 0 0 0 0 0 127 0" result="hardAlpha"/>
<feOffset dy="2"/>
<feGaussianBlur stdDeviation="1"/>
<feComposite in2="hardAlpha" operator="arithmetic" k2="-1" k3="1"/>
<feColorMatrix type="matrix" values="0 0 0 0 1 0 0 0 0 1 0 0 0 0 1 0 0 0 0.29 0"/>
<feBlend mode="normal" in2="shape" result="effect2_innerShadow_134_17"/>
</filter>
<filter id="filter1_d_134_17" x="3" y="1" width="27" height="27" filterUnits="userSpaceOnUse" color-interpolation-filters="sRGB">
<feFlood flood-opacity="0" result="BackgroundImageFix"/>
<feColorMatrix in="SourceAlpha" type="matrix" values="0 0 0 0 0 0 0 0 0 0 0 0 0 0 0 0 0 0 127 0" result="hardAlpha"/>
<feOffset dy="2"/>
<feGaussianBlur stdDeviation="4"/>
<feComposite in2="hardAlpha" operator="out"/>
<feColorMatrix type="matrix" values="0 0 0 0 0.366667 0 0 0 0 0.0504167 0 0 0 0 0.0743193 0 0 0 0.44 0"/>
<feBlend mode="normal" in2="BackgroundImageFix" result="effect1_dropShadow_134_17"/>
<feBlend mode="normal" in="SourceGraphic" in2="effect1_dropShadow_134_17" result="shape"/>
</filter>
<linearGradient id="paint0_linear_134_17" x1="15" y1="0" x2="15" y2="30" gradientUnits="userSpaceOnUse">
<stop stop-color="#FFB6BB"/>
<stop offset="1" stop-color="#FFE4E6"/>
</linearGradient>
<linearGradient id="paint1_linear_134_17" x1="15" y1="4" x2="15" y2="26" gradientUnits="userSpaceOnUse">
<stop stop-color="#D11523"/>
<stop offset="1" stop-color="#F2535F"/>
</linearGradient>
<linearGradient id="paint2_linear_134_17" x1="16.5" y1="7" x2="16.5" y2="18" gradientUnits="userSpaceOnUse">
<stop stop-color="#FFEAEA"/>
<stop offset="0.651042" stop-color="#FEC2C2"/>
<stop offset="1" stop-color="#FFECEC"/>
</linearGradient>
</defs>
</svg>
