<svg width="18" height="18" viewBox="0 0 18 18" fill="none" xmlns="http://www.w3.org/2000/svg">
<path d="M10.8299 16.4C10.6399 16.4 10.4199 16.4 10.1599 16.36L10.0299 16.34C9.89988 16.33 9.74988 16.31 9.57988 16.28L9.43988 16.24C8.26988 15.99 6.51988 15.3 4.60988 13.39C2.69988 11.48 2.00988 9.72 1.76988 8.58L1.72988 8.41C1.69988 8.27 1.68988 8.14 1.66988 8.02C1.63988 7.91 1.63988 7.81 1.63988 7.75C1.54988 7.06 1.63988 6.56 1.65988 6.5C1.84988 4.93 2.72988 3.42 4.27988 2.07C4.66988 1.72 5.19988 1.56 5.70988 1.6C6.22988 1.65 6.69988 1.92 7.01988 2.33L8.80988 4.73C9.36988 5.48 9.27988 6.53 8.60988 7.17L8.21988 7.58C7.82988 7.97 7.32988 8.2 6.80988 8.22C6.73988 8.22 6.58988 8.25 6.49988 8.33C6.49988 8.32 6.49988 8.73 7.83988 10.18C9.23988 11.49 9.67988 11.48 9.70988 11.46C9.73988 11.39 9.75988 11.24 9.76988 11.16C9.78988 10.66 10.0199 10.16 10.3999 9.77L10.8399 9.35C11.4599 8.7 12.5099 8.62 13.2599 9.17L15.6599 10.95C16.0799 11.27 16.3499 11.74 16.3999 12.26C16.4499 12.78 16.2799 13.3 15.9299 13.7C14.9699 14.81 13.9199 15.57 12.8099 15.98L12.8899 16.06L11.4799 16.32C11.4799 16.32 11.2199 16.36 10.8399 16.36L10.8299 16.4ZM3.18988 8.09C3.18988 8.09 3.21988 8.2 3.22988 8.25C3.42988 9.21 4.01988 10.68 5.66988 12.33C7.31988 13.98 8.78988 14.56 9.72988 14.76L9.84988 14.79C9.98988 14.82 10.0999 14.83 10.2099 14.84L10.3399 14.86C10.5599 14.88 10.7499 14.89 10.8999 14.88L11.2499 14.84C12.4999 14.7 13.6999 13.99 14.7999 12.73C14.8999 12.61 14.9099 12.49 14.8999 12.43C14.8999 12.37 14.8699 12.26 14.7499 12.17L12.3599 10.39C12.2199 10.28 12.0099 10.3 11.8899 10.42L11.4399 10.85C11.3299 10.96 11.2599 11.1 11.2499 11.24C11.2199 11.75 11.0399 12.19 10.7299 12.52C10.4699 12.8 9.88988 13.2 8.90988 12.8C8.32988 12.56 7.62988 12.05 6.76988 11.24C5.96988 10.38 4.16988 8.45 5.45988 7.24C5.78988 6.93 6.21988 6.75 6.72988 6.72C6.87988 6.72 7.01988 6.64 7.13988 6.53L7.53988 6.11C7.67988 5.97 7.69988 5.77 7.58988 5.62L5.80988 3.23C5.72988 3.12 5.60988 3.09 5.54988 3.09C5.47988 3.09 5.36988 3.09 5.24988 3.19C3.96988 4.31 3.26988 5.47 3.11988 6.74C3.11988 6.8 3.05988 7.11 3.11988 7.64L3.13988 7.78C3.14988 7.89 3.15988 7.99 3.17988 8.08L3.18988 8.09Z" fill="#1E1E1E"/>
</svg>
