<svg width="18" height="18" viewBox="0 0 18 18" fill="none" xmlns="http://www.w3.org/2000/svg">
<g clip-path="url(#clip0_28_5105)">
<path d="M9.00035 2.51L14.6404 3.22V9.78C14.6404 14 10.1104 15.23 9.00035 15.46C7.91035 15.22 3.36035 13.98 3.36035 9.78V3.22L9.00035 2.51ZM9.00035 1L1.86035 1.9V9.79C1.86035 15.87 9.00035 17 9.00035 17C9.00035 17 16.1404 15.87 16.1404 9.79V1.9L9.00035 1Z" fill="#1E1E1E"/>
<path d="M10.3598 10.0999H9.74977V9.28992C10.7698 8.96992 11.4998 8.02992 11.4998 6.90992C11.4998 5.52992 10.3798 4.41992 8.99977 4.41992C7.61977 4.41992 6.50977 5.52992 6.50977 6.90992C6.50977 8.02992 7.23977 8.96992 8.24977 9.28992V12.2799C8.24977 12.6899 8.58977 13.0299 8.99977 13.0299C9.40977 13.0299 9.74977 12.6899 9.74977 12.2799V11.5999H10.3598C10.7798 11.5999 11.1098 11.2599 11.1098 10.8499C11.1098 10.4399 10.7798 10.0999 10.3598 10.0999ZM8.00977 6.90992C8.00977 6.35992 8.45977 5.91992 8.99977 5.91992C9.53977 5.91992 9.99977 6.35992 9.99977 6.90992C9.99977 7.16992 9.89977 7.39992 9.73977 7.56992C9.55977 7.76992 9.28977 7.89992 8.99977 7.89992C8.70977 7.89992 8.43977 7.76992 8.25977 7.55992C8.09977 7.38992 8.00977 7.15992 8.00977 6.90992Z" fill="#1E1E1E"/>
</g>
<defs>
<clipPath id="clip0_28_5105">
<rect width="18" height="18" fill="white"/>
</clipPath>
</defs>
</svg>
