<svg width="18" height="18" viewBox="0 0 18 18" fill="none" xmlns="http://www.w3.org/2000/svg">
<g clip-path="url(#clip0_28_5096)">
<path d="M7.8598 0.969971C7.0298 0.969971 6.2398 1.27997 5.6298 1.80997C5.0398 1.28997 4.2698 0.969971 3.4298 0.969971C1.5698 0.969971 0.0498047 2.47997 0.0498047 4.32997C0.0498047 5.47997 0.639805 6.53997 1.6098 7.16997C1.9598 7.39997 2.4198 7.28997 2.6498 6.94997C2.8698 6.59997 2.7698 6.13997 2.4298 5.90997C1.8898 5.55997 1.5598 4.96997 1.5598 4.32997C1.5598 3.29997 2.3998 2.46997 3.4298 2.46997C4.4598 2.46997 5.2898 3.30997 5.2898 4.32997C5.2898 4.96997 4.9698 5.55997 4.4198 5.90997C4.0698 6.12997 3.9698 6.59997 4.1998 6.94997C4.3398 7.16997 4.5798 7.28997 4.8298 7.28997C4.9698 7.28997 5.1098 7.24997 5.2398 7.16997C6.2098 6.53997 6.7898 5.47997 6.7898 4.32997C6.7898 3.86997 6.6998 3.42997 6.5298 3.03997C6.8798 2.67997 7.3498 2.46997 7.8598 2.46997C8.8898 2.46997 9.7198 3.30997 9.7198 4.32997C9.7198 4.96997 9.39981 5.55997 8.8498 5.90997C8.4998 6.12997 8.39981 6.59997 8.6298 6.94997C8.7698 7.16997 9.0098 7.28997 9.2598 7.28997C9.39981 7.28997 9.5398 7.24997 9.6698 7.16997C10.6398 6.53997 11.2198 5.47997 11.2198 4.32997C11.2198 2.47997 9.7098 0.969971 7.8598 0.969971Z" fill="#1E1E1E"/>
<path d="M17.1497 1.95001C16.5097 1.20001 15.5797 0.76001 14.5897 0.76001C13.4397 0.76001 12.3797 1.34001 11.7497 2.31001C11.5297 2.66001 11.6297 3.12001 11.9697 3.35001C12.3197 3.58001 12.7797 3.47001 13.0097 3.13001C13.3597 2.59001 13.9497 2.26001 14.5897 2.26001C15.1397 2.26001 15.6497 2.50001 16.0097 2.92001C16.3697 3.35001 16.5197 3.89001 16.4297 4.46001C16.4097 4.61001 16.3597 4.75001 16.2997 4.89001C15.0997 4.04001 13.6497 3.95001 12.3097 4.69001C12.0297 4.84001 11.8397 5.11001 11.7897 5.42001C11.7297 5.74001 11.8197 6.06001 12.0297 6.31001C12.6897 7.07001 13.6097 7.49001 14.5897 7.49001C14.8197 7.49001 15.0597 7.47001 15.2897 7.42001C16.6297 7.15001 17.6897 6.05001 17.9097 4.70001C18.0697 3.70001 17.7997 2.70001 17.1597 1.94001L17.1497 1.95001ZM14.9797 5.96001C14.5197 6.05001 14.0497 5.98001 13.6597 5.76001C14.0897 5.65001 14.5897 5.66001 15.1097 5.93001C15.0697 5.94001 15.0197 5.95001 14.9797 5.96001Z" fill="#1E1E1E"/>
<path d="M2.48047 9.13988H7.53047V10.5599H3.98047V12.4099H7.17047V13.8299H3.98047V15.6799H7.53047V17.0999H2.48047V9.12988V9.13988Z" fill="#1E1E1E"/>
<path d="M9.08008 9.13988H10.8301L14.0401 14.4799H14.1301L14.0401 12.9399V9.12988H15.5301V17.0999H13.9501L10.5701 11.4599H10.4801L10.5701 12.9999V17.1099H9.09008V9.13988H9.08008Z" fill="#1E1E1E"/>
</g>
<defs>
<clipPath id="clip0_28_5096">
<rect width="18" height="18" fill="white"/>
</clipPath>
</defs>
</svg>
